<?xml version="1.0" standalone="no"?>
<!DOCTYPE svg PUBLIC "-//W3C//DTD SVG 20010904//EN"
 "http://www.w3.org/TR/2001/REC-SVG-20010904/DTD/svg10.dtd">
<svg version="1.0" xmlns="http://www.w3.org/2000/svg"
 width="362.000000pt" height="364.000000pt" viewBox="0 0 362.000000 364.000000"
 preserveAspectRatio="xMidYMid meet">
<metadata>
Created by potrace 1.16, written by Peter Selinger 2001-2019
</metadata>
<g transform="translate(0.000000,364.000000) scale(0.100000,-0.100000)"
fill="#000000" stroke="none">
<path d="M544 3590 c-269 -70 -482 -302 -529 -578 -14 -78 -15 -237 -12 -1243
3 -1296 -2 -1200 79 -1368 58 -119 186 -248 305 -310 169 -86 80 -81 1417 -81
1315 0 1241 -3 1391 70 149 72 263 186 335 335 80 163 75 77 75 1390 0 1112
-1 1174 -19 1245 -55 221 -191 391 -391 490 -147 73 -84 70 -1400 69 -1120 0
-1184 -1 -1251 -19z m1749 -586 l57 -6 0 -189 0 -189 -137 0 c-124 0 -143 -3
-188 -24 -60 -27 -100 -72 -115 -126 -6 -22 -9 -113 -8 -212 l3 -173 214 -3
214 -2 -7 -48 c-4 -26 -19 -126 -34 -222 l-27 -175 -180 -5 -180 -5 -3 -557
-2 -558 -245 0 -245 0 0 560 0 560 -205 0 -205 0 0 225 0 225 204 0 203 0 6
228 c4 185 8 241 25 303 56 210 192 353 375 394 61 14 332 13 480 -1z"/>
</g>
</svg>
