<?xml version="1.0" standalone="no"?>
<!DOCTYPE svg PUBLIC "-//W3C//DTD SVG 20010904//EN"
 "http://www.w3.org/TR/2001/REC-SVG-20010904/DTD/svg10.dtd">
<svg version="1.0" xmlns="http://www.w3.org/2000/svg"
 width="563.000000pt" height="533.000000pt" viewBox="0 0 563.000000 533.000000"
 preserveAspectRatio="xMidYMid meet">
<metadata>
Created by potrace 1.16, written by Peter Selinger 2001-2019
</metadata>
<g transform="translate(0.000000,533.000000) scale(0.100000,-0.100000)"
fill="#000000" stroke="none">
<path d="M3145 4784 c-159 -34 -255 -83 -361 -189 -63 -63 -90 -99 -123 -165
-95 -193 -95 -396 0 -590 55 -112 172 -231 279 -285 336 -169 728 -42 892 290
53 106 63 155 63 295 0 139 -11 182 -73 305 -54 105 -174 221 -284 274 -47 23
-116 48 -154 56 -64 14 -193 18 -239 9z m-58 -180 c83 -40 117 -149 71 -229
-34 -57 -89 -87 -155 -82 -96 7 -160 81 -151 176 11 118 128 185 235 135z
m497 -18 c52 -39 69 -78 64 -146 -7 -91 -67 -149 -156 -150 -120 -1 -200 114
-157 226 25 67 90 107 162 101 36 -2 62 -11 87 -31z m-633 -438 c94 -52 109
-189 27 -265 -77 -72 -205 -48 -255 47 -29 54 -29 94 0 150 47 93 134 119 228
68z m745 17 c128 -53 140 -228 21 -295 -145 -82 -306 77 -225 221 42 76 127
107 204 74z m-395 -276 c51 -16 95 -64 110 -121 12 -42 11 -53 -7 -95 -64
-155 -279 -135 -318 31 -9 37 18 116 48 145 23 22 87 50 115 51 7 0 31 -5 52
-11z"/>
<path d="M5480 4559 c-80 -61 -170 -130 -200 -153 -30 -22 -61 -46 -70 -53
-113 -90 -1077 -817 -1162 -877 l-68 -47 0 -323 c0 -260 3 -325 13 -329 14 -5
225 -152 312 -216 28 -21 111 -83 185 -138 74 -55 259 -192 410 -304 531 -396
705 -525 718 -533 9 -6 12 19 12 111 l-1 118 -88 55 c-48 30 -365 228 -704
440 l-616 385 -1 48 c0 26 4 47 9 47 5 0 8 12 6 28 -2 15 -2 22 1 15 3 -7 11
-10 18 -7 7 3 18 -2 25 -10 7 -8 20 -12 29 -9 14 5 15 3 5 -7 -10 -11 -18 -11
-38 -2 -36 17 -45 14 -15 -4 23 -14 23 -14 3 -9 -13 4 -23 4 -23 1 0 -8 240
-127 240 -118 0 4 4 2 8 -5 9 -13 185 -103 191 -97 3 3 -5 11 -17 20 -13 9
-19 20 -15 27 4 7 -1 6 -11 -2 -12 -10 -20 -11 -24 -4 -4 6 -18 13 -32 14 -18
3 -25 10 -25 26 -1 20 -29 52 -47 53 -20 0 -5 -19 19 -27 27 -9 27 -10 5 -15
-12 -4 -20 -2 -16 3 3 5 -1 9 -8 10 -31 2 -51 9 -67 23 -10 9 -26 16 -36 16
-14 0 -15 3 -6 14 10 12 7 14 -19 11 -18 -2 -28 0 -25 5 4 6 -1 10 -9 10 -9 0
-16 5 -16 11 0 11 10 10 55 -6 13 -4 12 -1 -5 9 -18 11 -21 15 -8 16 9 0 23
-6 31 -14 8 -8 32 -18 53 -22 l39 -8 -35 -8 c-27 -5 -24 -6 15 -3 28 3 57 0
65 -6 11 -8 8 -9 -15 -5 -24 5 -27 4 -12 -4 9 -6 27 -8 38 -5 14 5 19 3 15 -3
-3 -6 -1 -14 5 -18 8 -4 9 -3 5 5 -6 8 0 10 18 5 48 -12 26 3 -46 31 -40 16
-99 39 -130 52 -63 25 -72 27 -64 14 6 -10 -30 -22 -38 -13 -3 3 2 10 10 17
14 10 7 15 -45 35 l-61 22 0 45 c0 37 3 44 18 39 9 -2 233 -64 497 -136 264
-72 568 -156 675 -186 108 -30 201 -54 208 -54 9 0 12 37 12 145 0 119 -3 145
-14 145 -8 0 -149 18 -313 40 -164 21 -368 48 -453 59 -85 11 -258 34 -385 51
-126 16 -233 30 -237 30 -5 0 -8 13 -8 29 0 17 3 32 8 34 4 3 140 -1 302 -9
162 -7 444 -20 625 -28 182 -9 364 -17 405 -20 41 -2 67 -2 58 1 -10 2 -18 8
-18 11 0 4 -87 8 -193 9 -107 1 -211 7 -233 12 -87 22 -91 22 -69 12 18 -8 16
-10 -10 -10 -16 0 -174 6 -350 14 -176 8 -345 15 -375 15 -42 1 -50 4 -35 11
15 7 12 8 -12 3 -18 -3 -48 -2 -65 2 -33 7 -33 7 -8 16 13 5 49 6 80 3 41 -5
51 -4 40 5 -11 8 2 10 55 9 39 0 124 2 190 6 121 6 155 8 435 20 85 3 198 8
250 11 52 2 147 7 210 10 106 5 130 9 119 17 -2 2 -71 0 -154 -4 -128 -7
-1230 -59 -1249 -59 -3 0 -6 13 -6 30 0 34 -1 33 125 49 44 6 247 33 450 60
713 97 819 111 827 111 4 0 8 65 8 145 0 80 -3 145 -6 145 -4 0 -113 -30 -243
-66 -130 -37 -297 -83 -371 -104 -468 -131 -757 -212 -773 -216 -16 -5 -18 0
-15 37 l3 43 99 40 c55 22 94 42 86 44 -9 3 -6 10 11 23 13 10 18 19 11 19 -7
0 -20 -9 -29 -20 -10 -11 -24 -20 -32 -20 -11 0 -10 4 5 15 23 18 11 20 -16 3
-19 -12 -19 -13 1 -24 17 -9 12 -11 -30 -11 -28 0 -51 2 -51 3 0 7 118 63 124
59 3 -3 4 -2 1 2 -5 6 21 22 58 36 26 10 21 -12 -5 -23 -21 -8 -21 -9 7 -8 44
2 125 28 125 42 0 6 -5 18 -10 26 -7 12 -12 12 -22 2 -9 -9 -8 -12 6 -12 31 0
12 -22 -33 -37 -45 -15 -71 -10 -30 6 l24 10 -25 1 -25 1 24 12 c19 9 25 9 29
-1 2 -6 11 -12 20 -12 15 1 15 2 0 11 -10 5 -18 14 -18 18 0 14 38 20 68 11
15 -5 20 -9 12 -10 -8 -1 -3 -7 13 -14 27 -12 27 -12 -40 -36 -38 -13 -73 -27
-80 -32 -7 -6 -17 -7 -23 -3 -5 3 -10 2 -10 -3 0 -5 -10 -12 -22 -15 -12 -4
-20 -9 -17 -12 7 -6 257 92 278 109 8 6 16 10 18 8 4 -4 125 41 188 69 22 10
112 46 200 80 87 35 154 64 148 66 -7 3 -25 -3 -42 -11 -23 -12 -36 -14 -57
-6 -23 9 -25 8 -15 -4 9 -11 8 -15 -5 -20 -24 -9 -46 -7 -39 4 4 6 11 7 17 4
6 -4 8 -3 5 3 -4 7 -18 7 -42 -1 -40 -12 -49 -32 -10 -22 45 11 26 -11 -22
-26 -40 -13 -50 -13 -75 -1 -15 8 -34 12 -41 10 -7 -3 -4 -6 6 -6 10 -1 15 -6
12 -11 -4 -6 -3 -10 2 -9 4 1 17 1 28 0 18 -2 18 -3 -3 -12 -13 -5 -36 -7 -50
-4 -20 4 -22 3 -8 -3 15 -7 12 -10 -20 -24 -78 -32 -109 -43 -121 -40 -7 2
-13 -1 -13 -7 0 -5 -15 -12 -32 -16 -18 -4 -43 -13 -55 -21 -15 -10 -29 -11
-45 -5 -13 6 -16 10 -8 11 13 0 13 1 0 10 -12 8 -12 10 3 16 10 4 16 12 13 20
-3 9 6 12 37 11 23 -1 45 -6 48 -11 4 -4 17 2 29 14 l22 22 -32 -7 c-23 -5
-30 -4 -26 4 5 7 1 9 -8 5 -9 -3 -16 -4 -16 -1 0 9 151 77 171 77 13 0 17 -5
12 -16 -5 -14 -3 -14 15 -3 21 13 20 13 -9 26 -33 14 -31 14 -543 -251 -59
-31 -112 -56 -118 -56 -5 0 -8 19 -6 42 l3 42 285 183 c157 100 294 188 305
196 11 7 121 78 245 157 124 79 268 171 320 204 52 34 130 84 172 111 l78 50
0 118 c0 64 -1 117 -2 117 -2 0 -68 -50 -148 -111z"/>
<path d="M1669 4057 c-79 -27 -132 -62 -193 -127 -85 -91 -121 -196 -114 -334
4 -74 11 -104 36 -159 44 -95 125 -178 222 -225 66 -31 86 -37 166 -40 152 -7
264 37 360 141 87 93 124 187 124 312 0 312 -307 532 -601 432z m47 -112 c33
-22 57 -81 49 -118 -9 -40 -31 -66 -72 -83 -44 -19 -88 -8 -123 33 -44 49 -42
103 4 149 28 28 41 34 78 34 24 0 53 -7 64 -15z m324 0 c66 -34 78 -115 27
-171 -27 -30 -41 -37 -74 -38 -74 -1 -123 46 -123 119 0 29 8 45 34 71 39 39
86 45 136 19z m-435 -310 c38 -19 55 -51 55 -106 0 -67 -70 -121 -136 -105
-15 4 -39 20 -55 36 -23 23 -29 37 -29 73 0 92 81 141 165 102z m561 -19 c63
-63 39 -156 -48 -185 -90 -30 -178 73 -134 157 22 43 54 62 104 62 37 0 50 -6
78 -34z m-299 -175 c49 -23 63 -45 63 -101 0 -57 -50 -110 -105 -110 -60 0
-100 29 -116 82 -20 70 31 140 106 147 6 0 29 -8 52 -18z"/>
<path d="M2314 3747 c40 -162 -9 -346 -127 -474 -99 -106 -258 -170 -400 -160
l-68 4 3 -343 3 -344 33 -32 32 -33 915 0 915 0 32 33 33 32 3 570 c1 314 -1
570 -4 570 -4 0 -22 -11 -41 -26 -46 -35 -145 -80 -223 -101 -86 -23 -261 -23
-349 0 -157 42 -318 153 -402 276 l-34 50 -164 1 -163 0 6 -23z m1181 -877 c4
-7 -260 -10 -784 -10 -521 0 -791 3 -791 10 0 7 268 10 784 10 513 0 787 -3
791 -10z m-5 -310 c0 -7 -268 -10 -785 -10 -517 0 -785 3 -785 10 0 7 268 10
785 10 517 0 785 -3 785 -10z"/>
<path d="M3750 3110 l0 -320 90 0 90 0 0 320 0 320 -90 0 -90 0 0 -320z"/>
<path d="M1440 2670 c0 -136 -6 -129 78 -94 l32 13 0 84 0 84 -41 12 c-23 7
-47 15 -55 18 -12 4 -14 -17 -14 -117z"/>
<path d="M1940 2290 c0 -38 28 -89 59 -104 26 -14 113 -16 713 -16 616 0 686
2 707 16 25 18 51 71 51 104 0 20 -3 20 -765 20 -762 0 -765 0 -765 -20z"/>
<path d="M2490 2106 c0 -2 17 -35 39 -73 l39 -68 -20 -40 c-12 -22 -67 -121
-123 -220 -56 -99 -136 -241 -178 -315 -441 -792 -546 -971 -578 -993 -28 -19
-35 -30 -37 -64 -3 -34 1 -44 24 -62 37 -29 70 -26 106 9 23 24 29 37 25 58
-6 30 -4 35 108 232 138 243 676 1200 718 1277 22 40 44 70 48 67 5 -3 9 -327
9 -720 0 -635 -2 -718 -16 -746 -19 -38 -7 -72 31 -90 22 -10 30 -8 53 9 33
24 39 56 18 88 -15 22 -16 103 -16 739 0 394 4 717 9 720 4 3 99 -158 211
-357 112 -199 250 -443 306 -542 384 -681 364 -642 357 -677 -7 -34 43 -88 81
-88 38 0 79 41 79 78 0 33 -35 82 -58 82 -7 0 -25 24 -40 52 -16 29 -212 379
-436 777 l-407 723 39 68 c22 37 39 70 39 74 0 3 -97 6 -215 6 -118 0 -215 -2
-215 -4z"/>
</g>
</svg>
