<?xml version="1.0" standalone="no"?>
<!DOCTYPE svg PUBLIC "-//W3C//DTD SVG 20010904//EN"
 "http://www.w3.org/TR/2001/REC-SVG-20010904/DTD/svg10.dtd">
<svg version="1.0" xmlns="http://www.w3.org/2000/svg"
 width="360.000000pt" height="363.000000pt" viewBox="0 0 360.000000 363.000000"
 preserveAspectRatio="xMidYMid meet">
<metadata>
Created by potrace 1.16, written by Peter Selinger 2001-2019
</metadata>
<g transform="translate(0.000000,363.000000) scale(0.100000,-0.100000)"
fill="#000000" stroke="none">
<path d="M522 3580 c-40 -11 -109 -38 -155 -61 -108 -56 -245 -191 -298 -294
-75 -144 -70 -28 -67 -1440 l3 -1270 29 -70 c85 -204 257 -358 470 -419 l88
-26 1183 0 c1150 0 1184 1 1261 20 213 54 380 193 474 395 73 156 70 91 70
1380 0 1300 3 1238 -75 1400 -71 148 -211 282 -360 348 -135 59 -84 57 -1370
56 -1128 0 -1183 -1 -1253 -19z m1926 -616 c242 -49 431 -230 493 -472 18 -70
19 -115 19 -692 0 -581 -1 -621 -20 -694 -62 -242 -248 -420 -493 -470 -114
-24 -1221 -24 -1335 0 -198 41 -358 165 -447 348 -66 133 -66 139 -63 851 3
622 4 642 24 695 73 190 192 321 360 396 110 49 154 52 792 53 502 1 605 -1
670 -15z"/>
<path d="M1122 2755 c-113 -31 -216 -118 -272 -231 l-35 -69 0 -655 0 -655 33
-67 c37 -73 114 -155 180 -193 97 -55 96 -55 754 -55 589 0 611 1 670 21 114
38 204 118 260 228 l33 66 0 655 0 655 -33 66 c-46 91 -119 163 -212 208 l-75
36 -625 2 c-518 2 -634 0 -678 -12z m1365 -210 c13 -9 33 -30 43 -48 52 -85
-13 -200 -113 -200 -81 0 -137 54 -137 133 0 66 33 110 100 134 24 8 80 -2
107 -19z m-553 -121 c116 -29 203 -81 297 -174 71 -70 94 -101 127 -170 51
-108 66 -172 65 -285 0 -108 -21 -195 -68 -284 -89 -170 -228 -282 -412 -332
-66 -18 -96 -21 -193 -16 -182 8 -306 63 -428 192 -274 288 -231 739 93 970
69 50 111 70 200 96 78 23 236 25 319 3z"/>
<path d="M1669 2206 c-119 -33 -218 -118 -272 -233 -61 -132 -45 -308 41 -421
256 -341 782 -153 760 272 -9 178 -123 323 -296 376 -72 23 -164 25 -233 6z"/>
</g>
</svg>
